solid ascii
  facet normal 1.000000e+000 0.000000e+000 -0.000000e+000
    outer loop
      vertex   -7.000000e+001 9.500000e+001 6.000000e+000
      vertex   -7.000000e+001 1.000000e+002 6.000000e+000
      vertex   -7.000000e+001 9.500000e+001 3.600000e+001
    endloop
  endfacet
  facet normal 1.000000e+000 -0.000000e+000 0.000000e+000
    outer loop
      vertex   -7.000000e+001 9.500000e+001 3.600000e+001
      vertex   -7.000000e+001 1.000000e+002 6.000000e+000
      vertex   -7.000000e+001 1.000000e+002 3.600000e+001
    endloop
  endfacet
  facet normal 0.000000e+000 -1.000000e+000 0.000000e+000
    outer loop
      vertex   -7.500000e+001 9.500000e+001 6.000000e+000
      vertex   -7.000000e+001 9.500000e+001 6.000000e+000
      vertex   -7.500000e+001 9.500000e+001 3.600000e+001
    endloop
  endfacet
  facet normal 0.000000e+000 -1.000000e+000 0.000000e+000
    outer loop
      vertex   -7.500000e+001 9.500000e+001 3.600000e+001
      vertex   -7.000000e+001 9.500000e+001 6.000000e+000
      vertex   -7.000000e+001 9.500000e+001 3.600000e+001
    endloop
  endfacet
  facet normal 0.000000e+000 0.000000e+000 1.000000e+000
    outer loop
      vertex   -7.000000e+001 1.000000e+002 3.600000e+001
      vertex   -7.500000e+001 1.000000e+002 3.600000e+001
      vertex   -7.000000e+001 9.500000e+001 3.600000e+001
    endloop
  endfacet
  facet normal 0.000000e+000 0.000000e+000 1.000000e+000
    outer loop
      vertex   -7.000000e+001 9.500000e+001 3.600000e+001
      vertex   -7.500000e+001 1.000000e+002 3.600000e+001
      vertex   -7.500000e+001 9.500000e+001 3.600000e+001
    endloop
  endfacet
  facet normal 0.000000e+000 -1.000000e+000 0.000000e+000
    outer loop
      vertex   -5.500000e+001 9.500000e+001 6.000000e+000
      vertex   -5.000000e+001 9.500000e+001 6.000000e+000
      vertex   -5.500000e+001 9.500000e+001 3.600000e+001
    endloop
  endfacet
  facet normal 0.000000e+000 -1.000000e+000 0.000000e+000
    outer loop
      vertex   -5.500000e+001 9.500000e+001 3.600000e+001
      vertex   -5.000000e+001 9.500000e+001 6.000000e+000
      vertex   -5.000000e+001 9.500000e+001 3.600000e+001
    endloop
  endfacet
  facet normal -1.000000e+000 0.000000e+000 0.000000e+000
    outer loop
      vertex   -5.500000e+001 1.000000e+002 6.000000e+000
      vertex   -5.500000e+001 9.500000e+001 6.000000e+000
      vertex   -5.500000e+001 1.000000e+002 3.600000e+001
    endloop
  endfacet
  facet normal -1.000000e+000 -0.000000e+000 0.000000e+000
    outer loop
      vertex   -5.500000e+001 1.000000e+002 3.600000e+001
      vertex   -5.500000e+001 9.500000e+001 6.000000e+000
      vertex   -5.500000e+001 9.500000e+001 3.600000e+001
    endloop
  endfacet
  facet normal 0.000000e+000 0.000000e+000 1.000000e+000
    outer loop
      vertex   -5.000000e+001 1.000000e+002 3.600000e+001
      vertex   -5.500000e+001 1.000000e+002 3.600000e+001
      vertex   -5.000000e+001 9.500000e+001 3.600000e+001
    endloop
  endfacet
  facet normal 0.000000e+000 0.000000e+000 1.000000e+000
    outer loop
      vertex   -5.000000e+001 9.500000e+001 3.600000e+001
      vertex   -5.500000e+001 1.000000e+002 3.600000e+001
      vertex   -5.500000e+001 9.500000e+001 3.600000e+001
    endloop
  endfacet
  facet normal 0.000000e+000 -1.192093e-008 1.000000e+000
    outer loop
      vertex   -7.500000e+001 9.500000e+001 6.000000e+000
      vertex   -7.500000e+001 7.500000e+001 6.000000e+000
      vertex   -7.000000e+001 9.500000e+001 6.000000e+000
    endloop
  endfacet
  facet normal 0.000000e+000 -1.192093e-008 1.000000e+000
    outer loop
      vertex   -7.000000e+001 9.500000e+001 6.000000e+000
      vertex   -7.500000e+001 7.500000e+001 6.000000e+000
      vertex   -5.000000e+001 7.500000e+001 6.000000e+000
    endloop
  endfacet
  facet normal 0.000000e+000 -1.192093e-008 1.000000e+000
    outer loop
      vertex   -5.500000e+001 9.500000e+001 6.000000e+000
      vertex   -5.000000e+001 7.500000e+001 6.000000e+000
      vertex   -5.000000e+001 9.500000e+001 6.000000e+000
    endloop
  endfacet
  facet normal 0.000000e+000 -1.192093e-008 1.000000e+000
    outer loop
      vertex   -5.500000e+001 9.500000e+001 6.000000e+000
      vertex   -7.000000e+001 9.500000e+001 6.000000e+000
      vertex   -5.000000e+001 7.500000e+001 6.000000e+000
    endloop
  endfacet
  facet normal 0.000000e+000 0.000000e+000 1.000000e+000
    outer loop
      vertex   -5.500000e+001 9.500000e+001 6.000000e+000
      vertex   -7.000000e+001 1.000000e+002 6.000000e+000
      vertex   -7.000000e+001 9.500000e+001 6.000000e+000
    endloop
  endfacet
  facet normal 0.000000e+000 -0.000000e+000 1.000000e+000
    outer loop
      vertex   -5.500000e+001 9.500000e+001 6.000000e+000
      vertex   -5.500000e+001 1.000000e+002 6.000000e+000
      vertex   -7.000000e+001 1.000000e+002 6.000000e+000
    endloop
  endfacet
  facet normal -1.000000e+000 0.000000e+000 -0.000000e+000
    outer loop
      vertex   -7.500000e+001 7.500000e+001 6.000000e+000
      vertex   -7.500000e+001 9.500000e+001 6.000000e+000
      vertex   -7.500000e+001 7.500000e+001 0.000000e+000
    endloop
  endfacet
  facet normal -1.000000e+000 0.000000e+000 0.000000e+000
    outer loop
      vertex   -7.500000e+001 7.500000e+001 0.000000e+000
      vertex   -7.500000e+001 9.500000e+001 6.000000e+000
      vertex   -7.500000e+001 1.000000e+002 0.000000e+000
    endloop
  endfacet
  facet normal -1.000000e+000 0.000000e+000 0.000000e+000
    outer loop
      vertex   -7.500000e+001 1.000000e+002 0.000000e+000
      vertex   -7.500000e+001 9.500000e+001 6.000000e+000
      vertex   -7.500000e+001 1.000000e+002 3.600000e+001
    endloop
  endfacet
  facet normal -1.000000e+000 -0.000000e+000 0.000000e+000
    outer loop
      vertex   -7.500000e+001 1.000000e+002 3.600000e+001
      vertex   -7.500000e+001 9.500000e+001 6.000000e+000
      vertex   -7.500000e+001 9.500000e+001 3.600000e+001
    endloop
  endfacet
  facet normal 0.000000e+000 1.000000e+000 -0.000000e+000
    outer loop
      vertex   -5.500000e+001 1.000000e+002 6.000000e+000
      vertex   -7.500000e+001 1.000000e+002 0.000000e+000
      vertex   -7.000000e+001 1.000000e+002 6.000000e+000
    endloop
  endfacet
  facet normal 0.000000e+000 1.000000e+000 0.000000e+000
    outer loop
      vertex   -5.500000e+001 1.000000e+002 6.000000e+000
      vertex   -5.000000e+001 1.000000e+002 0.000000e+000
      vertex   -7.500000e+001 1.000000e+002 0.000000e+000
    endloop
  endfacet
  facet normal -0.000000e+000 1.000000e+000 0.000000e+000
    outer loop
      vertex   -5.500000e+001 1.000000e+002 6.000000e+000
      vertex   -5.000000e+001 1.000000e+002 3.600000e+001
      vertex   -5.000000e+001 1.000000e+002 0.000000e+000
    endloop
  endfacet
  facet normal 0.000000e+000 1.000000e+000 0.000000e+000
    outer loop
      vertex   -5.500000e+001 1.000000e+002 6.000000e+000
      vertex   -5.500000e+001 1.000000e+002 3.600000e+001
      vertex   -5.000000e+001 1.000000e+002 3.600000e+001
    endloop
  endfacet
  facet normal -0.000000e+000 1.000000e+000 0.000000e+000
    outer loop
      vertex   -7.500000e+001 1.000000e+002 0.000000e+000
      vertex   -7.500000e+001 1.000000e+002 3.600000e+001
      vertex   -7.000000e+001 1.000000e+002 6.000000e+000
    endloop
  endfacet
  facet normal 0.000000e+000 1.000000e+000 -0.000000e+000
    outer loop
      vertex   -7.000000e+001 1.000000e+002 6.000000e+000
      vertex   -7.500000e+001 1.000000e+002 3.600000e+001
      vertex   -7.000000e+001 1.000000e+002 3.600000e+001
    endloop
  endfacet
  facet normal 1.000000e+000 -0.000000e+000 0.000000e+000
    outer loop
      vertex   -5.000000e+001 7.500000e+001 6.000000e+000
      vertex   -5.000000e+001 7.500000e+001 0.000000e+000
      vertex   -5.000000e+001 9.500000e+001 6.000000e+000
    endloop
  endfacet
  facet normal 1.000000e+000 -0.000000e+000 0.000000e+000
    outer loop
      vertex   -5.000000e+001 9.500000e+001 6.000000e+000
      vertex   -5.000000e+001 7.500000e+001 0.000000e+000
      vertex   -5.000000e+001 1.000000e+002 0.000000e+000
    endloop
  endfacet
  facet normal 1.000000e+000 0.000000e+000 0.000000e+000
    outer loop
      vertex   -5.000000e+001 1.000000e+002 3.600000e+001
      vertex   -5.000000e+001 9.500000e+001 6.000000e+000
      vertex   -5.000000e+001 1.000000e+002 0.000000e+000
    endloop
  endfacet
  facet normal 1.000000e+000 0.000000e+000 0.000000e+000
    outer loop
      vertex   -5.000000e+001 1.000000e+002 3.600000e+001
      vertex   -5.000000e+001 9.500000e+001 3.600000e+001
      vertex   -5.000000e+001 9.500000e+001 6.000000e+000
    endloop
  endfacet
  facet normal -0.000000e+000 -1.000000e+000 -0.000000e+000
    outer loop
      vertex   -5.000000e+001 7.500000e+001 6.000000e+000
      vertex   -7.500000e+001 7.500000e+001 6.000000e+000
      vertex   -5.000000e+001 7.500000e+001 0.000000e+000
    endloop
  endfacet
  facet normal -0.000000e+000 -1.000000e+000 -0.000000e+000
    outer loop
      vertex   -5.000000e+001 7.500000e+001 0.000000e+000
      vertex   -7.500000e+001 7.500000e+001 6.000000e+000
      vertex   -7.500000e+001 7.500000e+001 0.000000e+000
    endloop
  endfacet
  facet normal 0.000000e+000 0.000000e+000 -1.000000e+000
    outer loop
      vertex   -5.000000e+001 7.500000e+001 0.000000e+000
      vertex   -7.500000e+001 7.500000e+001 0.000000e+000
      vertex   -5.000000e+001 1.000000e+002 0.000000e+000
    endloop
  endfacet
  facet normal -0.000000e+000 0.000000e+000 -1.000000e+000
    outer loop
      vertex   -5.000000e+001 1.000000e+002 0.000000e+000
      vertex   -7.500000e+001 7.500000e+001 0.000000e+000
      vertex   -7.500000e+001 1.000000e+002 0.000000e+000
    endloop
  endfacet
endsolid
